<svg xmlns="http://www.w3.org/2000/svg" width="340" height="210" viewBox="0 0 340 210">
  <defs>
    <linearGradient id="logoGradient" x1="0" x2="1" y1="0" y2="1">
      <stop stop-color="#7df9ff" />
      <stop offset=".52" stop-color="#4f7cff" />
      <stop offset="1" stop-color="#ff5fd7" />
    </linearGradient>

    <symbol id="zel-mark" viewBox="0 0 120 120">
      <path d="M22 25H94L34 94H98" fill="none" stroke="url(#logoGradient)" stroke-width="10" stroke-linecap="round" stroke-linejoin="round" />
      <path d="M34 29C58 10 92 18 101 45C111 75 83 103 53 96C19 88 11 48 34 29Z" fill="none" stroke="url(#logoGradient)" stroke-width="3.5" opacity=".72" />
      <path d="M26 28L61 62M94 25L61 62M61 62L35 94M61 62L98 94" stroke="url(#logoGradient)" stroke-width="1.6" opacity=".7" />
      <circle cx="22" cy="25" r="4" fill="#7df9ff" />
      <circle cx="94" cy="25" r="4" fill="#7df9ff" />
      <circle cx="61" cy="62" r="4" fill="#7df9ff" />
      <circle cx="34" cy="94" r="4" fill="#7df9ff" />
      <circle cx="98" cy="94" r="4" fill="#7df9ff" />
    </symbol>

    <symbol id="zel-full" viewBox="0 0 340 120">
      <use href="#zel-mark" width="105" height="105" x="0" y="8" />
      <text x="118" y="58" fill="#f4f8ff" font-family="Inter, Arial, sans-serif" font-size="34" font-weight="900" letter-spacing="4">ZEL CODE</text>
      <text x="121" y="84" fill="#9aa9c7" font-family="Inter, Arial, sans-serif" font-size="12" letter-spacing="5">ZEL TECHNOLOGIES</text>
    </symbol>

    <symbol id="zel-vertical" viewBox="0 0 160 210">
      <use href="#zel-mark" width="120" height="120" x="20" />
      <text x="80" y="155" fill="#f4f8ff" text-anchor="middle" font-family="Inter, Arial, sans-serif" font-size="22" font-weight="900" letter-spacing="3">ZEL CODE</text>
      <text x="80" y="178" fill="#9aa9c7" text-anchor="middle" font-family="Inter, Arial, sans-serif" font-size="8" letter-spacing="4">ZEL TECHNOLOGIES</text>
    </symbol>
  </defs>

  <use href="#zel-full" width="340" height="120" x="0" y="0" />
</svg>
