<svg xmlns="http://www.w3.org/2000/svg" viewBox="0 0 420 140" role="img" aria-labelledby="title desc">
  <title id="title">ZEL CODE Light Mode Logo</title>
  <desc id="desc">Full logo for ZEL CODE by ZEL TECHNOLOGIES.</desc>
  <rect width="420" height="140" rx="28" fill="#f7fbff" />
  <g transform="translate(16 10) scale(1)">
    <defs><linearGradient id="g" x1="0" x2="1" y1="0" y2="1"><stop stop-color="#7df9ff"/><stop offset=".52" stop-color="#4f7cff"/><stop offset="1" stop-color="#ff5fd7"/></linearGradient></defs>
    <path d="M22 25H94L34 94H98" fill="none" stroke="url(#g)" stroke-width="10" stroke-linecap="round" stroke-linejoin="round" />
    <path d="M34 29C58 10 92 18 101 45C111 75 83 103 53 96C19 88 11 48 34 29Z" fill="none" stroke="url(#g)" stroke-width="3.5" opacity=".72" />
    <path d="M26 28L61 62M94 25L61 62M61 62L35 94M61 62L98 94" stroke="url(#g)" stroke-width="1.6" opacity=".7" />
    <circle cx="22" cy="25" r="4" fill="#7df9ff"/><circle cx="94" cy="25" r="4" fill="#7df9ff"/><circle cx="61" cy="62" r="4" fill="#7df9ff"/><circle cx="34" cy="94" r="4" fill="#7df9ff"/><circle cx="98" cy="94" r="4" fill="#7df9ff"/>
  </g>
  <text x="146" y="66" fill="#071023" font-family="Inter, Arial, sans-serif" font-size="40" font-weight="900" letter-spacing="5">ZEL CODE</text>
  <text x="150" y="96" fill="#4a5875" font-family="Inter, Arial, sans-serif" font-size="13" letter-spacing="6">ZEL TECHNOLOGIES</text>
</svg>
